<?xml version="1.0" encoding="UTF-8"?>
<!DOCTYPE svg PUBLIC "-//W3C//DTD SVG 1.1//EN" "http://www.w3.org/Graphics/SVG/1.1/DTD/svg11.dtd">
<svg xmlns="http://www.w3.org/2000/svg" version="1.1" width="447px" height="447px" viewBox="100 40 250 250" style="shape-rendering:geometricPrecision; text-rendering:geometricPrecision; image-rendering:optimizeQuality; fill-rule:evenodd; clip-rule:evenodd;" xmlns:xlink="http://www.w3.org/1999/xlink">
  <!-- El encuadre (viewBox) ahora se enfoca únicamente en el área del triángulo -->
  <g>
    <path fill="#017f48" stroke="#017f48" stroke-width="0.5" d="M 229.52,139.01 c 2.61,-2.74 4.88,-5.74 6.82,-8.99 c 0.92,-1.88 0.97,-3.76 0.15,-5.65 c -0.38,1.19 -0.7,2.4 -0.95,3.65 c -1.6,3.67 -4.79,6.53 -7.57,9.29 c -17.13,15.45 -40.42,28.02 -60.2,39.93 c -3.7,1.88 -7.42,3.72 -11.15,5.52 c -0.31,-0.29 -0.35,-0.63 -0.12,-1.02 c 12.01,-28.97 24.56,-57.41 38.22,-85.49 c 8.06,-12.47 17.31,-14.05 28.7,-3.9 c 19.04,16.48 36.1,35.1 52.66,54.04 c 9.29,11.99 22.06,24.01 27.62,38.17 c 4.17,11.56 -10.91,20.05 -19.26,23.05 c -25.17,10.12 -51.21,19.09 -76.7,28.51 c -1.63,0.18 -3.14,0.72 -4.53,1.61 c -0.39,0.13 -0.69,0.02 -0.9,-0.33 c 4.69,-6.27 9.19,-12.7 13.5,-19.32 c 11.92,-20.3 25.34,-42.37 33.32,-64.62 c 2.46,-9.17 3.82,-12.96 0.92,-21.96 c -1.04,-3.62 -6.23,-9.83 -10.31,-9.11 c -0.51,0.39 -0.52,0.78 -0.05,1.19 c 3.24,-0.21 3.65,1.65 5.88,3.36 c 8.59,10.89 -3.54,29.81 -10.27,39.04 c -20.5,28 -41.93,56.67 -65.96,81.72 c -6.08,1.86 -13.28,0.99 -19.16,-1.28 c -15.79,-9.41 -6.65,-31.23 -1.43,-44.29 c 27.87,-19.09 56.52,-39.52 80.77,-63.12 Z"/>
  </g>
</svg>
